<?xml version="1.0" standalone="no"?>
<!DOCTYPE svg PUBLIC "-//W3C//DTD SVG 20010904//EN"
 "http://www.w3.org/TR/2001/REC-SVG-20010904/DTD/svg10.dtd">
<svg version="1.0" xmlns="http://www.w3.org/2000/svg"
 width="704.000000pt" height="704.000000pt" viewBox="0 0 704.000000 704.000000"
 preserveAspectRatio="xMidYMid meet">
<metadata>
Created by potrace 1.11, written by Peter Selinger 2001-2013
</metadata>
<g transform="translate(0.000000,704.000000) scale(0.100000,-0.100000)"
fill="#000000" stroke="none">
<path d="M6605 6528 c-93 -31 -368 -117 -395 -123 -8 -2 -69 -20 -135 -40 -66
-21 -124 -38 -130 -40 -5 -1 -17 -4 -25 -7 -8 -3 -55 -18 -105 -33 -150 -45
-289 -87 -305 -93 -8 -3 -21 -6 -28 -8 -8 -1 -21 -6 -30 -10 -9 -4 -26 -9 -37
-11 -11 -2 -54 -14 -95 -27 -178 -56 -251 -78 -262 -80 -7 -2 -20 -6 -28 -9
-18 -7 -348 -107 -370 -112 -8 -2 -15 -4 -15 -5 0 -1 -7 -3 -15 -5 -8 -2 -76
-22 -150 -45 -74 -23 -142 -43 -150 -45 -8 -2 -34 -10 -58 -19 -23 -8 -43 -15
-45 -15 -1 0 -9 -2 -17 -5 -8 -3 -49 -15 -90 -26 -41 -12 -95 -28 -120 -37
-25 -8 -52 -16 -60 -18 -8 -2 -44 -12 -80 -23 -36 -11 -119 -37 -185 -57 -66
-20 -149 -45 -185 -57 -36 -11 -72 -22 -80 -24 -8 -2 -60 -17 -115 -34 -55
-17 -107 -33 -115 -35 -8 -2 -27 -8 -42 -14 -16 -6 -28 -8 -28 -5 0 2 -13 -2
-30 -11 -16 -9 -30 -13 -30 -10 0 3 -16 -1 -35 -9 -19 -8 -35 -12 -35 -9 0 3
-7 0 -15 -7 -8 -7 -15 -10 -15 -6 0 4 -13 0 -30 -9 -16 -9 -30 -14 -30 -11 0
2 -28 -5 -63 -16 -34 -11 -69 -21 -77 -23 -8 -2 -34 -10 -58 -19 -23 -8 -43
-15 -45 -15 -1 1 -29 -7 -62 -17 -33 -10 -64 -19 -70 -20 -5 -1 -39 -12 -74
-23 -36 -12 -112 -35 -170 -52 -58 -17 -113 -33 -121 -36 -8 -3 -19 -7 -25 -9
-5 -1 -57 -17 -115 -34 -58 -18 -109 -33 -115 -35 -5 -1 -17 -5 -25 -8 -18 -7
-241 -75 -285 -87 -44 -12 -383 -115 -514 -156 -62 -20 -119 -37 -125 -38 -6
-1 -58 -17 -116 -35 -58 -17 -143 -43 -190 -57 -47 -14 -110 -34 -140 -44 -63
-21 -140 -44 -155 -46 -5 0 -17 -4 -25 -7 -8 -3 -33 -11 -55 -17 -87 -25 -152
-55 -183 -84 -30 -28 -65 -80 -67 -98 0 -3 -3 -10 -7 -14 -15 -14 -8 -109 11
-149 34 -75 62 -97 261 -202 123 -66 299 -158 390 -204 47 -24 87 -46 90 -49
3 -3 52 -29 110 -59 58 -29 137 -70 175 -91 39 -21 115 -61 170 -90 55 -29
127 -67 160 -85 33 -18 110 -58 170 -90 61 -31 142 -73 180 -94 39 -20 129
-68 200 -106 72 -38 171 -91 220 -117 50 -27 102 -54 118 -59 15 -6 27 -15 27
-20 0 -5 17 -46 39 -91 21 -46 51 -110 66 -143 15 -33 44 -94 63 -135 20 -41
36 -77 37 -80 5 -15 28 -66 63 -138 22 -44 38 -82 36 -85 -3 -2 2 -10 11 -17
8 -7 15 -18 15 -25 0 -7 18 -49 40 -94 22 -44 40 -83 40 -85 0 -2 25 -57 56
-122 31 -66 62 -132 69 -149 8 -16 39 -83 69 -149 31 -65 56 -120 56 -122 0
-2 21 -47 46 -101 25 -54 54 -116 64 -138 34 -76 136 -295 196 -422 65 -136
153 -199 262 -188 97 10 152 57 241 206 35 57 83 138 108 179 25 41 55 93 68
115 42 76 89 150 97 153 4 2 8 8 8 13 0 13 101 182 114 191 6 4 7 8 2 8 -4 0
3 15 18 34 14 19 26 37 26 41 0 3 22 42 50 86 28 44 50 85 50 90 0 5 5 9 10 9
6 0 10 4 10 10 0 5 36 69 80 142 44 73 84 140 89 148 5 8 41 68 80 133 39 64
71 122 71 127 0 6 3 10 8 10 4 0 12 10 18 23 6 12 40 70 76 128 36 59 68 113
72 120 8 17 23 41 59 96 15 24 27 45 27 47 0 3 23 41 50 84 28 43 50 84 50 90
0 7 5 12 10 12 6 0 10 4 10 9 0 5 33 63 74 129 40 66 75 124 77 129 12 26 155
259 164 265 5 4 6 8 1 8 -5 0 -2 8 6 18 22 25 138 221 138 232 0 6 5 10 10 10
6 0 10 4 10 9 0 5 30 57 66 117 37 60 72 118 78 129 26 45 82 138 98 163 10
15 22 36 27 47 5 11 21 37 35 58 14 21 26 39 26 41 0 2 43 75 95 161 52 87 95
161 95 166 0 5 4 9 8 9 4 0 18 19 30 43 13 23 28 51 35 62 7 11 79 133 162
270 82 138 155 259 162 270 7 11 16 28 19 38 3 9 10 17 15 17 5 0 9 4 9 9 0 4
66 118 146 252 81 134 158 264 172 289 14 25 33 56 44 69 10 13 18 30 18 37 0
8 4 14 9 14 5 0 14 14 21 30 7 17 19 34 26 38 7 4 26 33 42 65 49 97 32 207
-45 283 -77 77 -150 87 -288 42z m-1135 -843 c0 -4 -66 -55 -110 -85 -12 -8
-36 -27 -54 -42 -17 -15 -34 -28 -38 -28 -5 0 -16 -8 -26 -17 -10 -10 -29 -25
-42 -33 -12 -8 -28 -19 -34 -25 -30 -26 -95 -75 -100 -75 -3 0 -16 -9 -28 -19
-13 -11 -134 -102 -269 -203 -136 -101 -259 -193 -275 -205 -16 -12 -78 -58
-139 -102 -60 -44 -117 -86 -125 -94 -8 -7 -31 -24 -50 -37 -19 -13 -37 -27
-40 -30 -3 -3 -21 -16 -40 -30 -19 -13 -39 -28 -45 -33 -10 -8 -223 -167 -267
-199 -104 -76 -216 -160 -229 -173 -9 -8 -19 -15 -23 -15 -4 0 -14 -6 -22 -12
-8 -7 -20 -18 -27 -23 -7 -6 -109 -82 -227 -170 -118 -88 -217 -163 -218 -167
-2 -5 -10 -8 -17 -8 -7 0 -15 -4 -17 -8 -1 -5 -91 -73 -198 -152 -107 -80
-233 -173 -280 -209 l-84 -64 -71 37 c-38 20 -115 60 -170 89 -55 29 -158 84
-230 121 -71 38 -157 83 -190 101 -95 51 -209 112 -355 188 -74 39 -164 86
-200 106 -36 20 -106 56 -155 81 -50 25 -92 47 -95 50 -3 3 -30 19 -61 35 -56
30 -72 47 -47 51 7 1 94 28 193 59 209 65 192 60 230 70 17 4 64 19 105 32 41
13 82 26 90 28 8 2 105 31 215 65 110 34 301 92 425 130 124 38 299 92 390
120 91 28 172 53 180 54 8 2 76 23 150 46 235 73 395 121 410 125 8 2 35 10
60 18 48 17 216 68 234 72 6 1 18 5 26 8 8 3 56 17 105 32 90 27 151 46 345
106 58 19 108 34 113 35 4 1 8 2 10 4 1 1 9 3 17 5 8 2 24 6 35 9 11 2 39 11
63 20 23 8 46 15 50 16 4 0 58 17 121 36 63 20 122 38 130 40 25 5 414 124
431 131 19 8 16 7 70 22 25 6 56 16 70 21 14 5 66 21 115 36 50 14 115 34 145
44 60 20 70 22 70 15z m427 -305 c-1 -11 -4 -20 -8 -20 -4 0 -14 -15 -23 -32
-9 -18 -26 -46 -36 -63 -11 -16 -23 -36 -27 -44 -3 -8 -46 -79 -95 -159 -48
-79 -88 -148 -88 -153 0 -5 -4 -9 -10 -9 -5 0 -10 -4 -10 -10 0 -5 -36 -69
-80 -141 -44 -73 -80 -136 -80 -140 0 -5 -4 -9 -10 -9 -5 0 -10 -5 -10 -10 0
-6 -22 -47 -50 -91 -27 -44 -50 -85 -50 -90 0 -5 -4 -9 -9 -9 -5 0 -11 -8 -15
-17 -3 -10 -16 -35 -28 -55 -13 -21 -39 -63 -58 -95 -19 -32 -46 -76 -59 -98
-13 -22 -31 -52 -40 -67 -22 -36 -114 -189 -126 -209 -5 -10 -35 -58 -65 -108
-30 -51 -59 -99 -65 -109 -5 -9 -61 -102 -123 -205 -62 -104 -121 -201 -130
-217 -9 -16 -64 -107 -122 -202 -58 -95 -112 -185 -120 -200 -8 -15 -49 -83
-90 -150 -41 -68 -77 -127 -80 -133 -4 -9 -40 -69 -83 -140 -7 -11 -14 -22
-17 -25 -3 -3 -11 -16 -18 -30 -10 -21 -132 -224 -162 -270 -5 -8 -19 -33 -31
-55 -12 -22 -25 -42 -29 -45 -3 -3 -9 -12 -13 -20 -3 -8 -45 -78 -91 -155 -47
-77 -95 -156 -106 -175 -11 -19 -32 -53 -45 -75 -14 -22 -33 -55 -42 -72 -9
-18 -19 -33 -23 -33 -3 0 -18 26 -32 58 -82 176 -105 227 -154 331 -30 62 -54
115 -54 117 0 2 -27 60 -60 129 -33 69 -63 137 -66 150 -3 14 -11 25 -17 25
-6 0 -7 3 -4 7 4 3 3 11 -2 17 -5 6 -45 90 -89 186 -44 96 -103 224 -131 283
-28 60 -51 110 -51 112 0 1 -23 50 -50 108 -28 58 -50 109 -49 114 0 4 50 44
111 88 60 44 118 88 129 98 10 9 21 17 24 17 3 0 13 7 22 15 21 17 511 382
544 405 12 8 27 20 33 25 6 6 25 19 41 29 17 11 34 25 38 33 4 7 14 13 22 13
7 0 15 4 17 8 2 4 71 57 153 117 83 60 180 132 216 160 37 27 77 57 89 65 13
8 31 22 40 30 9 8 38 31 66 50 27 19 51 38 52 42 2 4 8 8 14 8 6 0 31 17 57
38 25 21 109 84 186 140 77 55 150 110 162 121 12 12 24 21 27 21 3 0 110 78
238 173 128 94 244 180 258 190 14 10 86 63 160 118 74 54 140 102 145 107 6
4 25 19 44 32 19 14 42 30 50 37 37 29 186 142 188 142 1 1 1 -8 0 -19z"/>
</g>
</svg>
