<?xml version="1.0" standalone="no"?>
<!DOCTYPE svg PUBLIC "-//W3C//DTD SVG 20010904//EN"
 "http://www.w3.org/TR/2001/REC-SVG-20010904/DTD/svg10.dtd">
<svg version="1.0" xmlns="http://www.w3.org/2000/svg"
 width="560.000000pt" height="560.000000pt" viewBox="0 0 560.000000 560.000000"
 preserveAspectRatio="xMidYMid meet">
<metadata>
Created by potrace 1.11, written by Peter Selinger 2001-2013
</metadata>
<g transform="translate(0.000000,560.000000) scale(0.100000,-0.100000)"
fill="#000000" stroke="none">
<path d="M0 2800 l0 -2540 2800 0 2800 0 0 2540 0 2540 -2800 0 -2800 0 0
-2540z m5068 2050 l42 0 0 -2050 0 -2050 -62 0 c-82 -1 -4483 -1 -4525 0 l-33
0 0 2049 0 2050 33 3 c23 2 4231 1 4545 -2z"/>
<path d="M2099 4176 c-2 -2 -37 -7 -77 -10 -142 -13 -336 -75 -466 -149 -349
-197 -569 -541 -634 -990 -9 -67 -8 -385 2 -457 20 -140 65 -303 113 -407 14
-32 27 -61 27 -65 1 -3 5 -10 9 -15 5 -4 14 -21 21 -38 42 -99 239 -318 361
-402 158 -108 366 -186 565 -211 30 -4 271 -7 535 -7 l480 0 0 855 0 855 -240
0 -240 0 -3 -643 c-2 -602 -3 -642 -20 -643 -9 0 -106 -1 -214 -1 -285 1 -378
22 -562 126 -33 19 -69 49 -126 106 -56 56 -111 120 -104 120 2 0 -10 21 -26
46 -28 45 -88 178 -95 213 -2 9 -10 45 -19 81 -88 370 23 799 261 1010 48 42
100 79 158 111 43 23 170 68 211 74 18 3 51 8 72 11 36 6 1501 9 1632 4 215
-9 397 -183 445 -425 7 -37 7 -150 0 -188 -35 -181 -163 -330 -330 -382 -52
-17 -95 -20 -308 -21 -136 0 -249 -3 -251 -5 -3 -2 16 -36 40 -74 80 -125 109
-169 124 -195 26 -41 86 -134 212 -324 65 -98 118 -182 118 -186 0 -5 3 -10 8
-12 10 -4 232 -337 232 -349 0 -5 3 -9 8 -9 4 -1 30 -36 57 -79 l50 -79 283
-1 284 -1 -38 52 c-51 71 -102 141 -111 153 -5 6 -48 66 -97 135 -50 69 -93
126 -98 128 -4 2 -8 8 -8 14 0 6 -11 24 -25 42 -36 45 -36 45 -85 116 -25 36
-51 71 -58 79 -7 8 -21 26 -30 40 -9 14 -40 58 -69 98 -56 76 -62 90 -39 90
31 0 161 48 213 79 30 19 57 34 60 34 6 0 88 76 130 120 31 32 127 168 128
180 1 3 9 23 19 45 30 66 34 78 50 136 23 81 30 151 30 269 0 117 -8 204 -25
247 -6 15 -10 30 -10 33 2 19 -59 172 -77 193 -8 9 -12 17 -8 17 11 0 -88 139
-131 185 -47 49 -142 124 -204 159 -44 25 -157 73 -189 81 -8 2 -35 9 -60 16
-34 9 -264 13 -951 15 -499 2 -908 2 -910 0z"/>
</g>
</svg>
