<?xml version="1.0" standalone="no"?>
<!DOCTYPE svg PUBLIC "-//W3C//DTD SVG 20010904//EN"
 "http://www.w3.org/TR/2001/REC-SVG-20010904/DTD/svg10.dtd">
<svg version="1.0" xmlns="http://www.w3.org/2000/svg"
 width="16.000000pt" height="16.000000pt" viewBox="0 0 16.000000 16.000000"
 preserveAspectRatio="xMidYMid meet">
<metadata>
Created by potrace 1.11, written by Peter Selinger 2001-2013
</metadata>
<g transform="translate(0.000000,16.000000) scale(0.002286,-0.002286)"
fill="#000000" stroke="none">
<path d="M0 3500 l0 -3500 3500 0 3500 0 0 3500 0 3500 -3500 0 -3500 0 0
-3500z m3238 1758 c6 -40 54 -404 107 -808 53 -404 99 -742 102 -750 4 -11
198 1542 203 1623 0 4 236 7 525 7 l525 0 0 -1815 0 -1815 -365 0 -365 0 -2
1162 -3 1162 -133 -1140 c-74 -626 -136 -1147 -139 -1157 -4 -16 -22 -17 -246
-15 l-241 3 -151 1139 -150 1139 -3 -1147 -2 -1146 -355 0 -355 0 0 1808 c0
995 3 1812 7 1815 3 4 237 7 518 7 l513 0 10 -72z"/>
</g>
</svg>
