<svg xmlns="http://www.w3.org/2000/svg" xmlns:xlink="http://www.w3.org/1999/xlink" width="118.558" height="118.558" viewBox="0 0 118.558 118.558"><defs><path id="a" d="M59.28 109.283c-27.618 0-50.005-22.387-50.005-50.005 0-27.616 22.387-50.005 50.005-50.005 27.616 0 50.003 22.388 50.003 50.005 0 27.618-22.387 50.005-50.003 50.005zm0-95.232c-24.979 0-45.228 20.248-45.228 45.227 0 24.979 20.249 45.228 45.228 45.228 24.977 0 45.227-20.249 45.227-45.228-.001-24.979-20.25-45.227-45.227-45.227z"/></defs><use xlink:href="#a" overflow="visible" fill-rule="evenodd" clip-rule="evenodd" fill="#cfd9e0"/><defs><path id="b" d="M59.278 109.283c-1.034 0-2.056-.042-3.075-.104l.307-4.766c.917.055 1.838.093 2.767.093 24.98 0 45.228-20.249 45.228-45.228 0-24.978-20.248-45.228-45.228-45.228-23.937 0-43.518 18.598-45.111 42.132l-4.76-.352C11.181 29.824 32.823 9.274 59.278 9.274c27.617 0 50.005 22.388 50.005 50.004.001 27.617-22.387 50.005-50.005 50.005z"/></defs><use xlink:href="#b" overflow="visible" fill-rule="evenodd" clip-rule="evenodd" fill="#6587a8"/><defs><path id="c" d="M59.279 118.558C26.541 118.558 0 92.018 0 59.279S26.541 0 59.279 0s59.279 26.541 59.279 59.279-26.54 59.279-59.279 59.279zm0-113.994c-30.218 0-54.714 24.497-54.714 54.715 0 30.218 24.496 54.714 54.714 54.714s54.714-24.496 54.714-54.714S89.497 4.564 59.279 4.564z"/></defs><use xlink:href="#c" overflow="visible" fill-rule="evenodd" clip-rule="evenodd" fill="#cfd9e0"/><defs><path id="d" d="M59.279 118.558C26.541 118.558 0 92.017 0 59.278c0-6.448 1.045-12.65 2.949-18.462l4.322 1.464a54.653 54.653 0 0 0-2.707 16.998c0 30.219 24.497 54.714 54.714 54.714 30.219 0 54.716-24.495 54.716-54.714 0-23.496-14.813-43.526-35.608-51.278l1.506-4.311c22.577 8.375 38.664 30.101 38.664 55.589.001 32.739-26.538 59.28-59.277 59.28z"/></defs><use xlink:href="#d" overflow="visible" fill-rule="evenodd" clip-rule="evenodd" fill="#95acbc"/></svg>