<svg xmlns="http://www.w3.org/2000/svg" preserveAspectRatio="xMidYMid" width="18" height="18" viewBox="0 0 18 18"><defs><style>.cls-2{fill:#b5c5d0}</style></defs><path d="M17.293 17.064H.627a.629.629 0 0 1-.634-.633c0-3.324 2.709-6.016 6.022-6.016h5.889a6.026 6.026 0 0 1 6.022 6.016c0 .353-.28.633-.633.633zm-5.389-5.384H6.015a4.763 4.763 0 0 0-4.711 4.119h15.312a4.752 4.752 0 0 0-4.712-4.119zM8.93 9.576a4.807 4.807 0 0 1-4.799-4.795C4.131 2.148 6.28 0 8.93 0c2.65 0 4.8 2.133 4.8 4.781a4.799 4.799 0 0 1-4.8 4.795zm0-8.326a3.543 3.543 0 0 0-3.533 3.531c0 1.942 1.59 3.53 3.533 3.53a3.542 3.542 0 0 0 3.534-3.53A3.543 3.543 0 0 0 8.93 1.25z" id="path-1" class="cls-2" fill-rule="evenodd"/></svg>